#!OML:ASF F:\VICON\USERDATA\INSTALL\rory3\rory3.ASF
:FULLY-SPECIFIED
:DEGREES
385
root 1.01578 18.1247 29.8407 -3.73878 -5.0316 -1.17004
lowerback 7.61644 1.93526 0.651624
upperback 1.31515 2.64064 0.462992
thorax -2.89933 1.30846 -0.15114
lowerneck -14.5466 -2.5052 -1.23192
upperneck 17.3417 -3.31191 0.767643
head 7.7844 -1.58339 0.0949565
rclavicle -1.41384e-014 9.21864e-015
rhumerus -31.5755 -21.8026 -77.7309
rradius 25.4411
rwrist 7.02518
rhand -15.294 21.6845
rfingers 7.12502
rthumb 10.8812 -8.01358
lclavicle -1.41384e-014 9.21864e-015
lhumerus -37.812 4.60206 80.4195
lradius 23.521
lwrist -2.15041
lhand -22.4196 29.9391
lfingers 7.12502
lthumb 4.00359 59.8812
rfemur -11.1476 0.865872 22.8771
rtibia 70.5137
rfoot 3.91758 -5.82347
rtoes 3.20343
lfemur -13.0315 -3.35056 -22.6438
ltibia 31.3115
lfoot -12.809 -0.153843
ltoes 0.364693
386
root 1.01907 18.1268 29.9886 -3.68658 -4.87326 -1.05077
lowerback 7.60169 1.81486 0.470946
upperback 1.35184 2.46637 0.491678
thorax -2.8631 1.22375 -0.00197272
lowerneck -14.7918 -2.49457 -1.34685
upperneck 17.468 -3.2923 0.881212
head 7.87363 -1.56877 0.149349
rclavicle -2.20779e-014 3.80176e-015
rhumerus -31.2841 -22.7317 -77.4163
rradius 24.838
rwrist 7.76266
rhand -15.3293 21.7465
rfingers 7.12502
rthumb 10.8471 -7.95336
lclavicle -2.20779e-014 3.80176e-015
lhumerus -37.5448 3.87512 80.8599
lradius 23.9126
lwrist -0.972374
lhand -22.5476 29.9922
lfingers 7.12502
lthumb 3.87997 59.9366
rfemur -12.4222 0.620179 22.7492
rtibia 70.7504
rfoot 2.54474 -5.86565
rtoes 3.25837
lfemur -12.5877 -3.30299 -22.8955
ltibia 31.3325
lfoot -13.1493 0.00366983
ltoes -0.344741
387
root 1.02277 18.1287 30.1406 -3.68809 -4.62507 -0.802639
lowerback 7.48766 1.66682 0.128573
upperback 1.42794 2.24168 0.512245
thorax -2.73538 1.11544 0.238179
lowerneck -14.8769 -2.46488 -1.2659
upperneck 17.5002 -3.24595 0.762044
head 7.89529 -1.55264 0.100592
rclavicle 3.38027e-014 5.2181e-016
rhumerus -31.1462 -22.775 -77.3659
rradius 24.866
rwrist 7.60574
rhand -15.0409 21.9192
rfingers 7.12502
rthumb 11.1253 -7.76588
lclavicle 3.38027e-014 5.2181e-016
lhumerus -37.2541 3.34937 81.2239
lradius 24.4468
lwrist -0.410423
lhand -23.6317 29.5936
lfingers 7.12502
lthumb 2.83305 59.5545
rfemur -13.5475 0.252568 22.4349
rtibia 70.8522
rfoot 1.12884 -5.74226
rtoes 0.909154
lfemur -12.0681 -3.40634 -23.313
ltibia 31.3668
lfoot -13.595 0.218979
ltoes -0.630064
388
root 1.02179 18.1253 30.2954 -3.79151 -4.40069 -0.584383
lowerback 7.55235 1.53036 -0.246612
upperback 1.46059 2.03175 0.55476
thorax -2.75128 1.01408 0.511343
lowerneck -14.865 -2.45929 -1.1649
upperneck 17.5145 -3.22873 0.59435
head 7.89296 -1.55446 0.0306273
rclavicle 2.97556e-015 -1.98785e-015
rhumerus -31.2804 -22.3344 -77.4639
rradius 25.2781
rwrist 7.09364
rhand -14.9993 21.8776
rfingers 7.12502
rthumb 11.1654 -7.80533
lclavicle 2.97556e-015 -1.98785e-015
lhumerus -36.9969 2.81598 81.4521
lradius 25.0689
lwrist -0.263896
lhand -23.381 30.1436
lfingers 7.12502
lthumb 3.07515 60.1012
rfemur -14.5132 -0.0974972 22.2104
rtibia 70.8701
rfoot -0.413993 -5.50682
rtoes 3.55071
lfemur -11.4465 -3.54159 -23.6798
ltibia 31.4225
lfoot -14.0812 0.429924
ltoes -0.577435
389
root 1.02389 18.119 30.4465 -3.80429 -4.27836 -0.569139
lowerback 7.63527 1.4282 -0.325035
upperback 1.45243 1.89107 0.602243
thorax -2.80831 0.944894 0.615828
lowerneck -14.888 -2.45992 -1.30698
upperneck 17.4665 -3.23234 0.77678
head 7.88693 -1.54768 0.113773
rclavicle 8.09737e-015 3.67752e-015
rhumerus -31.4167 -22.1887 -77.4973
rradius 25.504
rwrist 7.03842
rhand -15.158 21.467
rfingers 7.12502
rthumb 11.0123 -8.22411
lclavicle 8.09737e-015 3.67752e-015
lhumerus -36.6952 2.36049 81.5754
lradius 25.5561
lwrist 0.0518415
lhand -24.6072 28.1791
lfingers 7.12502
lthumb 1.89096 58.1505
rfemur -15.6804 -0.263084 22.2298
rtibia 70.7871
rfoot -1.65165 -5.34612
rtoes 0.544112
lfemur -11.0289 -3.54957 -23.8011
ltibia 31.6237
lfoot -14.6217 0.62369
ltoes -1.4536
390
root 1.0291 18.107 30.583 -3.70768 -4.16763 -0.476412
lowerback 7.81202 1.3065 -0.429514
upperback 1.31302 1.72185 0.626955
thorax -3.05219 0.862413 0.710777
lowerneck -14.9219 -2.4606 -1.52354
upperneck 17.5721 -3.21801 0.946331
head 7.9347 -1.53807 0.20579
rclavicle -8.51668e-015 4.87022e-015
rhumerus -31.6754 -21.6197 -77.5919
rradius 25.8929
rwrist 6.51619
rhand -15.2001 21.0402
rfingers 7.12502
rthumb 10.9718 -8.65308
lclavicle -8.51668e-015 4.87022e-015
lhumerus -36.6822 1.83454 81.7226
lradius 26.0939
lwrist 0.604167
lhand -27.024 23.0962
lfingers 7.12502
lthumb -0.443256 53.0755
rfemur -17.0378 -0.458768 22.1439
rtibia 70.5815
rfoot -2.20551 -5.15947
rtoes 2.73595
lfemur -10.8477 -3.50567 -23.9952
ltibia 31.9371
lfoot -15.0045 0.698944
ltoes -0.942529
391
root 1.03589 18.09 30.7176 -3.57485 -3.98416 -0.702229
lowerback 7.91194 1.2008 -0.142604
upperback 1.22907 1.60879 0.712734
thorax -3.1874 0.803862 0.646804
lowerneck -14.9234 -2.55044 -1.69877
upperneck 17.5602 -3.34652 1.17435
head 7.94006 -1.58822 0.295508
rclavicle 2.64818e-014 5.66536e-015
rhumerus -31.8799 -21.4103 -77.5913
rradius 26.2736
rwrist 6.15978
rhand -15.214 21.0652
rfingers 7.12502
rthumb 10.9583 -8.62886
lclavicle 2.64818e-014 5.66536e-015
lhumerus -36.4652 1.14836 81.9291
lradius 26.6814
lwrist 0.824728
lhand -26.9316 21.9788
lfingers 7.12502
lthumb -0.354057 51.9582
rfemur -18.2384 -0.714245 22.4119
rtibia 70.1556
rfoot -2.90154 -5.00218
rtoes 4.08752
lfemur -10.7267 -3.40916 -23.8542
ltibia 32.3413
lfoot -15.4797 0.776618
ltoes -0.566416
392
root 1.04143 18.0711 30.8599 -3.51931 -3.78808 -0.756136
lowerback 7.81659 1.05646 -0.0874595
upperback 1.34507 1.42272 0.782417
thorax -3.01224 0.710768 0.710488
lowerneck -14.8802 -2.504 -1.71955
upperneck 17.2382 -3.29111 1.26372
head 7.82663 -1.55584 0.336962
rclavicle 1.45361e-015 1.71949e-014
rhumerus -31.7124 -21.5514 -77.5901
rradius 26.3504
rwrist 6.39827
rhand -15.3523 21.4449
rfingers 7.12502
rthumb 10.8249 -8.25617
lclavicle 1.45361e-015 1.71949e-014
lhumerus -35.7723 0.504856 82.199
lradius 26.9821
lwrist 1.51072
lhand -26.4715 23.644
lfingers 7.12502
lthumb 0.0903952 53.6238
rfemur -19.2655 -1.01845 22.4744
rtibia 69.6318
rfoot -4.24131 -4.89823
rtoes 3.3479
lfemur -10.4472 -3.41522 -23.9032
ltibia 32.6849
lfoot -16.0093 0.925629
ltoes -1.02354
393
root 1.04473 18.0534 31.0015 -3.55822 -3.6705 -0.632477
lowerback 7.95546 0.934531 -0.296776
upperback 1.39311 1.24395 0.814136
thorax -3.04255 0.623913 0.877514
lowerneck -14.9102 -2.48637 -1.54138
upperneck 17.1526 -3.27155 1.08665
head 7.79694 -1.55246 0.251675
rclavicle -1.47101e-014 1.75924e-014
rhumerus -31.6372 -21.2314 -77.7901
rradius 26.5831
rwrist 5.9377
rhand -15.1471 20.7582
rfingers 7.12502
rthumb 11.0229 -8.93235
lclavicle -1.47101e-014 1.75924e-014
lhumerus -35.2651 0.019317 82.329
lradius 27.3321
lwrist 2.10955
lhand -27.5393 24.3965
lfingers 7.12502
lthumb -0.940967 54.3742
rfemur -20.2078 -1.22402 22.38
rtibia 69.0127
rfoot -5.83151 -4.85064
rtoes 1.70045
lfemur -10.0386 -3.41465 -24.1374
ltibia 32.955
lfoot -16.3781 0.936133
ltoes -0.144768
394
root 1.0451 18.0362 31.1484 -3.68573 -3.50305 -0.188675
lowerback 8.18451 0.820599 -0.864836
upperback 1.3475 1.04203 0.777928
thorax -3.22296 0.530004 1.17742
lowerneck -14.9008 -2.4769 -1.44083
upperneck 17.2212 -3.24653 0.900566
head 7.81257 -1.5522 0.176341
rclavicle 9.63484e-015 4.37326e-015
rhumerus -31.9031 -20.8622 -77.8463
rradius 27.0217
rwrist 5.55996
rhand -14.8185 19.9572
rfingers 7.12502
rthumb 11.3398 -9.71626
lclavicle 9.63484e-015 4.37326e-015
lhumerus -35.1936 -0.201489 82.279
lradius 28.0657
lwrist 1.46662
lhand -26.9352 25.1615
lfingers 7.12502
lthumb -0.357473 55.1409
rfemur -21.0496 -1.46426 21.8997
rtibia 68.3159
rfoot -7.29531 -4.735
rtoes 1.05438
lfemur -9.4673 -3.44286 -24.7474
ltibia 33.1248
lfoot -16.6513 1.10245
ltoes 1.03922
395
root 1.04629 18.0192 31.2973 -3.70281 -3.41527 0.235335
lowerback 8.0946 0.747765 -1.31076
upperback 1.46617 0.905206 0.719862
thorax -3.05215 0.464598 1.3848
lowerneck -14.989 -2.40382 -1.37698
upperneck 16.9642 -3.12384 0.737601
head 7.73766 -1.50598 0.126366
rclavicle 9.23106e-015 -1.19271e-015
rhumerus -31.6951 -20.8422 -77.8871
rradius 27.0925
rwrist 5.72226
rhand -14.7363 20.2057
rfingers 7.12502
rthumb 11.4191 -9.46335
lclavicle 9.23106e-015 -1.19271e-015
lhumerus -34.7813 -0.281742 82.124
lradius 28.8013
lwrist 0.240313
lhand -25.2021 26.3963
lfingers 7.12502
lthumb 1.31641 56.372
rfemur -22.035 -1.61217 21.4399
rtibia 67.4807
rfoot -8.47984 -4.73699
rtoes 0.507384
lfemur -8.97316 -3.54402 -25.3368
ltibia 33.2512
lfoot -16.9435 1.37699
ltoes 1.39015
396
root 1.04553 18.0026 31.435 -3.65545 -3.26636 0.274794
lowerback 8.09294 0.656813 -1.38896
upperback 1.58802 0.779456 0.77489
thorax -2.92262 0.401145 1.49975
lowerneck -15.0614 -2.3646 -1.35772
upperneck 16.6492 -3.05508 0.664719
head 7.6441 -1.47955 0.108003
rclavicle 1.54058e-014 1.55052e-014
rhumerus -31.4333 -20.3259 -78.172
rradius 27.3085
rwrist 5.08781
rhand -14.8108 20.2016
rfingers 7.12502
rthumb 11.3472 -9.47143
lclavicle 1.54058e-014 1.55052e-014
lhumerus -34.1696 -0.466595 82.0712
lradius 29.3263
lwrist -0.304643
lhand -24.7732 27.1832
lfingers 7.12502
lthumb 1.73061 57.1559
rfemur -23.0246 -1.73421 21.457
rtibia 66.4546
rfoot -9.47477 -4.81756
rtoes -0.199785
lfemur -8.58163 -3.66211 -25.4787
ltibia 33.3781
lfoot -17.3668 1.59896
ltoes 0.774501
397
root 1.04218 17.9811 31.5719 -3.63387 -3.03172 0.392952
lowerback 8.29912 0.525226 -1.59293
upperback 1.53533 0.584646 0.789288
thorax -3.08676 0.307916 1.6487
lowerneck -14.909 -2.39918 -1.30196
upperneck 16.4904 -3.107 0.618814
head 7.5638 -1.50637 0.0810752
rclavicle 2.07481e-015 4.96962e-015
rhumerus -31.6537 -19.8043 -78.3809
rradius 27.7558
rwrist 4.54508
rhand -14.8138 19.8316
rfingers 7.12502
rthumb 11.3443 -9.84154
lclavicle 2.07481e-015 4.96962e-015
lhumerus -33.7226 -0.961786 82.0799
lradius 29.6896
lwrist -0.0160579
lhand -23.1933 29.1484
lfingers 7.12502
lthumb 3.25638 59.1033
rfemur -23.9092 -1.99154 21.3874
rtibia 65.3457
rfoot -10.5088 -4.90973
rtoes -0.902518
lfemur -8.17388 -3.79451 -25.6903
ltibia 33.4896
lfoot -17.9465 1.82479
ltoes -0.0140826
398
root 1.03655 17.9644 31.7096 -3.51252 -2.9165 0.545619
lowerback 8.27122 0.429093 -1.82951
upperback 1.56827 0.435908 0.766616
thorax -3.03253 0.235285 1.77479
lowerneck -14.9983 -2.42947 -1.21659
upperneck 16.3944 -3.17403 0.660752
head 7.54778 -1.52885 0.0731121
rclavicle -6.73383e-015 5.96354e-015
rhumerus -31.5152 -20.0048 -78.4296
rradius 27.721
rwrist 4.80205
rhand -14.7333 20.0522
rfingers 7.12502
rthumb 11.422 -9.61671
lclavicle -6.73383e-015 5.96354e-015
lhumerus -33.0681 -1.7611 82.1287
lradius 29.9587
lwrist 0.698474
lhand -22.2357 30.3081
lfingers 7.12502
lthumb 4.18115 60.2468
rfemur -24.9138 -2.07495 21.3135
rtibia 64.104
rfoot -11.2088 -5.09437
rtoes -2.21748
lfemur -7.88268 -3.9235 -25.923
ltibia 33.5894
lfoot -18.3766 2.01947
ltoes 0.0335825
